<svg version="1.1" id="Layer_1" xmlns="http://www.w3.org/2000/svg" xmlns:xlink="http://www.w3.org/1999/xlink" x="0px" y="0px"
	 width="100%" viewBox="0 0 8000 8000" enable-background="new 0 0 8000 8000" xml:space="preserve">
<path fill="none" opacity="1.000000" stroke="none" 
	d="
M4868.000000,8004.000000 
	C3245.333252,8004.000000 1624.666626,8004.000000 4.000000,8004.000000 
	C4.000000,5337.333496 4.000000,2670.666748 4.000000,4.000001 
	C2670.666748,4.000001 5337.333496,4.000001 8004.000000,4.000000 
	C8004.000000,2670.666748 8004.000000,5337.333496 8004.000000,8004.000000 
	C6959.333496,8004.000000 5914.666504,8004.000000 4868.000000,8004.000000 
M1478.698975,2696.250244 
	C1476.999878,2697.594971 1475.282593,2698.918701 1473.652710,2700.342285 
	C1473.567871,2700.416504 1474.096802,2701.582520 1474.559448,2701.831299 
	C1477.318115,2703.313232 1478.994629,2701.930420 1483.687744,2699.667480 
	C1491.812256,2699.598877 1499.936646,2699.530273 1511.756836,2700.086426 
	C1516.421631,2700.119873 1521.086548,2700.182861 1525.751343,2700.183105 
	C3033.188232,2700.187256 4540.625000,2700.187988 6048.062012,2700.157471 
	C6054.708496,2700.157227 6061.354980,2699.703369 6070.375977,2699.909180 
	C6071.134277,2698.690186 6071.892090,2697.470947 6073.863770,2693.203125 
	C6073.951660,2688.538818 6074.115723,2683.874512 6074.115723,2679.210205 
	C6074.127930,2409.903564 6074.127930,2140.596680 6074.120117,1871.290039 
	C6074.119629,1865.957642 6074.150879,1860.620483 6073.947266,1855.293823 
	C6073.182617,1835.279785 6070.999023,1815.517700 6065.709473,1796.063599 
	C6034.134277,1679.938721 5913.140625,1597.857300 5782.062012,1630.013916 
	C5597.133789,1675.380859 5412.450684,1721.745483 5227.637695,1767.583496 
	C4999.525879,1824.160645 4771.372559,1880.570679 4543.267090,1937.173584 
	C4351.996094,1984.636108 4160.784180,2032.334717 3969.517578,2079.814453 
	C3752.404053,2133.710205 3535.246826,2187.428467 3318.131836,2241.318604 
	C3137.849121,2286.066406 2957.616455,2331.015137 2777.332764,2375.759277 
	C2560.216064,2429.645020 2343.061768,2483.378662 2125.937256,2537.233643 
	C1939.187256,2583.554932 1752.447998,2629.920410 1565.729980,2676.370605 
	C1546.391235,2681.181396 1527.229126,2686.702393 1504.938721,2691.586182 
	C1497.018188,2693.279053 1489.097656,2694.971924 1478.698975,2696.250244 
M2209.205078,2336.544189 
	C2201.340576,2340.438477 2193.476074,2344.332520 2181.802246,2350.112793 
	C2194.720703,2346.702881 2203.586670,2344.362793 2215.975342,2341.391113 
	C2217.396729,2340.373779 2219.263428,2339.641113 2220.136719,2338.273682 
	C2221.484375,2336.163086 2219.625244,2333.782959 2217.046143,2334.275635 
	C2215.309326,2334.607666 2213.714600,2335.682861 2209.205078,2336.544189 
M1042.620605,5410.000000 
	C1042.620728,5821.327637 1042.616455,6232.655273 1042.642822,6643.982910 
	C1042.643555,6655.979492 1042.889648,6667.978027 1043.153442,6679.972656 
	C1043.788696,6708.842773 1049.567871,6736.832031 1058.098877,6764.289551 
	C1079.265869,6832.416504 1118.050903,6888.853516 1172.774292,6934.201660 
	C1210.675659,6965.609375 1253.460205,6988.144531 1301.082275,7001.401855 
	C1337.297974,7011.483398 1374.082642,7015.678223 1411.638306,7015.675781 
	C3142.924316,7015.566895 4874.210449,7015.581543 6605.496582,7015.581543 
	C6608.829590,7015.581543 6612.163086,7015.549316 6615.496094,7015.578125 
	C6638.896973,7015.777832 6662.068848,7013.416992 6684.954102,7008.687500 
	C6798.464355,6985.229492 6882.283691,6921.945801 6936.239746,6819.589355 
	C6963.138184,6768.562988 6975.313477,6713.586914 6975.322754,6655.990234 
	C6975.383789,6285.333496 6975.355957,5914.677246 6975.356934,5544.020508 
	C6975.356934,5540.687500 6975.507812,5537.344727 6975.309082,5534.023438 
	C6975.081055,5530.203613 6974.541504,5526.402344 6974.096680,5522.210449 
	C6964.580566,5519.597168 6955.921387,5520.653320 6947.410156,5520.652344 
	C6546.754395,5520.597168 6146.098633,5520.601074 5745.442871,5520.612793 
	C5726.100098,5520.613281 5706.855957,5520.238770 5687.798340,5515.976562 
	C5634.753906,5504.112793 5589.795410,5478.572266 5553.926270,5437.571289 
	C5512.215332,5389.891602 5492.126953,5334.145020 5492.140137,5270.912598 
	C5492.187500,5050.251953 5492.100098,4829.591309 5492.302734,4608.930664 
	C5492.315918,4595.010742 5493.660156,4580.992188 5495.599121,4567.189941 
	C5508.661133,4474.202637 5578.561523,4393.651855 5672.349121,4367.785645 
	C5697.680176,4360.798828 5723.403320,4359.151855 5749.505859,4359.159180 
	C6148.161621,4359.273926 6546.817383,4359.239258 6945.473145,4359.237793 
	C6951.473145,4359.237793 6957.492676,4359.522461 6963.465332,4359.113770 
	C6967.190430,4358.858887 6970.843262,4357.550293 6975.356445,4356.526855 
	C6975.356445,4349.008789 6975.356934,4342.379395 6975.356934,4335.750000 
	C6975.356934,3965.760010 6975.353516,3595.770020 6975.361328,3225.780029 
	C6975.362305,3190.938477 6971.168457,3156.681885 6960.978516,3123.287598 
	C6926.215332,3009.362305 6853.095703,2930.761230 6742.438965,2887.237305 
	C6699.126465,2870.201904 6653.769531,2864.347656 6607.343262,2864.350098 
	C4878.057129,2864.447510 3148.771240,2864.431152 1419.485107,2864.444580 
	C1399.504761,2864.444824 1379.608154,2864.874756 1359.634521,2866.988281 
	C1330.230835,2870.099854 1301.924927,2877.010010 1274.367188,2887.221680 
	C1213.570923,2909.750488 1162.883057,2946.682617 1121.935059,2996.724609 
	C1087.220703,3039.148438 1063.862793,3087.267334 1051.275391,3140.794434 
	C1044.187988,3170.933105 1042.587769,3201.342285 1042.589478,3232.059326 
	C1042.629517,3956.706299 1042.619507,4681.353027 1042.620605,5410.000000 
M6975.274902,4710.000000 
	C6975.151367,4633.358398 6975.030273,4556.717285 6974.871582,4480.075684 
	C6974.870605,4479.490723 6974.412109,4478.878906 6974.084473,4478.329590 
	C6973.744629,4477.760254 6973.302734,4477.251465 6971.883789,4475.339844 
	C6965.054199,4475.243652 6957.167969,4475.035645 6949.282227,4475.035156 
	C6551.388184,4475.019531 6153.494141,4475.020996 5755.600098,4475.031250 
	C5747.603516,4475.031250 5739.604980,4475.103516 5731.609863,4475.260254 
	C5679.790039,4476.276367 5624.055176,4514.911621 5611.612793,4577.350098 
	C5609.034180,4590.289551 5608.317383,4603.783203 5608.305176,4617.022949 
	C5608.110352,4832.298828 5608.166504,5047.575195 5608.171387,5262.851074 
	C5608.171387,5268.182617 5608.109375,5273.518066 5608.273926,5278.845703 
	C5610.075684,5337.128418 5649.361328,5385.998535 5705.909180,5401.051270 
	C5719.697754,5404.721680 5733.579590,5404.735840 5747.556641,5404.736816 
	C6148.783203,5404.756348 6550.009277,5404.752441 6951.235840,5404.752441 
	C6955.234863,5404.752441 6959.251465,5404.979004 6963.227051,5404.671875 
	C6966.950684,5404.384277 6970.629883,5403.527344 6975.275391,5402.765625 
	C6975.275391,5172.368652 6975.275391,4943.184570 6975.274902,4710.000000 
M2767.097656,2204.832275 
	C2768.406494,2204.565674 2769.727295,2204.346436 2771.022705,2204.025391 
	C2939.707031,2162.224121 3108.397705,2120.447754 3277.070312,2078.599365 
	C3469.011230,2030.977783 3660.939941,1983.308228 3852.866455,1935.628296 
	C4043.494385,1888.271118 4234.104492,1840.841919 4424.737793,1793.504395 
	C4614.733398,1746.325073 4804.750000,1699.227051 4994.753906,1652.080200 
	C5150.502930,1613.433105 5306.249512,1574.775024 5461.982910,1536.063843 
	C5466.354004,1534.977539 5470.561523,1533.233276 5474.801270,1531.810425 
	C5474.950684,1528.955322 5475.426270,1526.941284 5475.097656,1525.068115 
	C5470.727051,1500.141113 5466.183594,1475.244141 5461.798340,1450.319580 
	C5450.488770,1386.036987 5439.283203,1321.736084 5427.939453,1257.459595 
	C5422.730957,1227.947021 5418.605957,1198.165161 5411.729004,1169.039185 
	C5386.790527,1063.409912 5293.741211,998.260559 5198.089355,995.825378 
	C5161.389648,994.891052 5126.812500,1003.000244 5093.569824,1018.278198 
	C5010.664062,1056.380981 4927.620605,1094.184570 4844.635742,1132.115234 
	C4255.250488,1401.511597 3665.862305,1670.900757 3076.483643,1940.311279 
	C2797.243896,2067.954346 2518.021973,2195.636719 2238.803223,2323.325928 
	C2233.368408,2325.811279 2227.885254,2328.297119 2222.822021,2331.426025 
	C2221.208984,2332.422607 2220.885254,2335.505615 2218.481934,2341.104492 
	C2402.437012,2295.578857 2583.200684,2250.746582 2767.097656,2204.832275 
z"/>
<path fill="#32C5F1" opacity="1.000000" stroke="none" 
	d="
M1042.619629,5408.000000 
	C1042.619507,4681.353027 1042.629517,3956.706299 1042.589478,3232.059326 
	C1042.587769,3201.342285 1044.187988,3170.933105 1051.275391,3140.794434 
	C1063.862793,3087.267334 1087.220703,3039.148438 1121.935059,2996.724609 
	C1162.883057,2946.682617 1213.570923,2909.750488 1274.367188,2887.221680 
	C1301.924927,2877.010010 1330.230835,2870.099854 1359.634521,2866.988281 
	C1379.608154,2864.874756 1399.504761,2864.444824 1419.485107,2864.444580 
	C3148.771240,2864.431152 4878.057129,2864.447510 6607.343262,2864.350098 
	C6653.769531,2864.347656 6699.126465,2870.201904 6742.438965,2887.237305 
	C6853.095703,2930.761230 6926.215332,3009.362305 6960.978516,3123.287598 
	C6971.168457,3156.681885 6975.362305,3190.938477 6975.361328,3225.780029 
	C6975.353516,3595.770020 6975.356934,3965.760010 6975.356934,4335.750000 
	C6975.356934,4342.379395 6975.356445,4349.008789 6975.356445,4356.526855 
	C6970.843262,4357.550293 6967.190430,4358.858887 6963.465332,4359.113770 
	C6957.492676,4359.522461 6951.473145,4359.237793 6945.473145,4359.237793 
	C6546.817383,4359.239258 6148.161621,4359.273926 5749.505859,4359.159180 
	C5723.403320,4359.151855 5697.680176,4360.798828 5672.349121,4367.785645 
	C5578.561523,4393.651855 5508.661133,4474.202637 5495.599121,4567.189941 
	C5493.660156,4580.992188 5492.315918,4595.010742 5492.302734,4608.930664 
	C5492.100098,4829.591309 5492.187500,5050.251953 5492.140137,5270.912598 
	C5492.126953,5334.145020 5512.215332,5389.891602 5553.926270,5437.571289 
	C5589.795410,5478.572266 5634.753906,5504.112793 5687.798340,5515.976562 
	C5706.855957,5520.238770 5726.100098,5520.613281 5745.442871,5520.612793 
	C6146.098633,5520.601074 6546.754395,5520.597168 6947.410156,5520.652344 
	C6955.921387,5520.653320 6964.580566,5519.597168 6974.096680,5522.210449 
	C6974.541504,5526.402344 6975.081055,5530.203613 6975.309082,5534.023438 
	C6975.507812,5537.344727 6975.356934,5540.687500 6975.356934,5544.020508 
	C6975.355957,5914.677246 6975.383789,6285.333496 6975.322754,6655.990234 
	C6975.313477,6713.586914 6963.138184,6768.562988 6936.239746,6819.589355 
	C6882.283691,6921.945801 6798.464355,6985.229492 6684.954102,7008.687500 
	C6662.068848,7013.416992 6638.896973,7015.777832 6615.496094,7015.578125 
	C6612.163086,7015.549316 6608.829590,7015.581543 6605.496582,7015.581543 
	C4874.210449,7015.581543 3142.924316,7015.566895 1411.638306,7015.675781 
	C1374.082642,7015.678223 1337.297974,7011.483398 1301.082275,7001.401855 
	C1253.460205,6988.144531 1210.675659,6965.609375 1172.774292,6934.201660 
	C1118.050903,6888.853516 1079.265869,6832.416504 1058.098877,6764.289551 
	C1049.567871,6736.832031 1043.788696,6708.842773 1043.153442,6679.972656 
	C1042.889648,6667.978027 1042.643555,6655.979492 1042.642822,6643.982910 
	C1042.616455,6232.655273 1042.620728,5821.327637 1042.619629,5408.000000 
z"/>
<path fill="#2A3469" opacity="1.000000" stroke="none" 
	d="
M6068.001465,2699.461426 
	C6061.354980,2699.703369 6054.708496,2700.157227 6048.062012,2700.157471 
	C4540.625000,2700.187988 3033.188232,2700.187256 1525.751343,2700.183105 
	C1521.086548,2700.182861 1516.421631,2700.119873 1509.901855,2698.512695 
	C1508.026245,2695.257080 1508.005615,2693.575684 1507.985107,2691.894043 
	C1527.229126,2686.702393 1546.391235,2681.181396 1565.729980,2676.370605 
	C1752.447998,2629.920410 1939.187256,2583.554932 2125.937256,2537.233643 
	C2343.061768,2483.378662 2560.216064,2429.645020 2777.332764,2375.759277 
	C2957.616455,2331.015137 3137.849121,2286.066406 3318.131836,2241.318604 
	C3535.246826,2187.428467 3752.404053,2133.710205 3969.517578,2079.814453 
	C4160.784180,2032.334717 4351.996094,1984.636108 4543.267090,1937.173584 
	C4771.372559,1880.570679 4999.525879,1824.160645 5227.637695,1767.583496 
	C5412.450684,1721.745483 5597.133789,1675.380859 5782.062012,1630.013916 
	C5913.140625,1597.857300 6034.134277,1679.938721 6065.709473,1796.063599 
	C6070.999023,1815.517700 6073.182617,1835.279785 6073.947266,1855.293823 
	C6074.150879,1860.620483 6074.119629,1865.957642 6074.120117,1871.290039 
	C6074.127930,2140.596680 6074.127930,2409.903564 6074.115723,2679.210205 
	C6074.115723,2683.874512 6073.951660,2688.538818 6072.290039,2694.937744 
	C6069.470703,2697.270020 6068.565918,2698.199707 6068.001465,2699.461426 
z"/>
<path fill="#2A3469" opacity="1.000000" stroke="none" 
	d="
M6975.275391,4712.000000 
	C6975.275391,4943.184570 6975.275391,5172.368652 6975.275391,5402.765625 
	C6970.629883,5403.527344 6966.950684,5404.384277 6963.227051,5404.671875 
	C6959.251465,5404.979004 6955.234863,5404.752441 6951.235840,5404.752441 
	C6550.009277,5404.752441 6148.783203,5404.756348 5747.556641,5404.736816 
	C5733.579590,5404.735840 5719.697754,5404.721680 5705.909180,5401.051270 
	C5649.361328,5385.998535 5610.075684,5337.128418 5608.273926,5278.845703 
	C5608.109375,5273.518066 5608.171387,5268.182617 5608.171387,5262.851074 
	C5608.166504,5047.575195 5608.110352,4832.298828 5608.305176,4617.022949 
	C5608.317383,4603.783203 5609.034180,4590.289551 5611.612793,4577.350098 
	C5624.055176,4514.911621 5679.790039,4476.276367 5731.609863,4475.260254 
	C5739.604980,4475.103516 5747.603516,4475.031250 5755.600098,4475.031250 
	C6153.494141,4475.020996 6551.388184,4475.019531 6949.282227,4475.035156 
	C6957.167969,4475.035645 6965.054199,4475.243652 6971.883789,4475.339844 
	C6973.302734,4477.251465 6973.744629,4477.760254 6974.084473,4478.329590 
	C6974.412109,4478.878906 6974.870605,4479.490723 6974.871582,4480.075684 
	C6975.030273,4556.717285 6975.151367,4633.358398 6975.275391,4712.000000 
M6287.395996,4839.004883 
	C6284.824707,4835.119629 6282.373047,4831.149414 6279.664062,4827.362793 
	C6231.793945,4760.453125 6148.916504,4730.823242 6069.630371,4752.235352 
	C5970.225098,4779.081543 5909.047363,4880.854004 5930.979004,4981.486816 
	C5952.660645,5080.970703 6048.158691,5144.936035 6144.611816,5133.191895 
	C6222.475098,5123.711914 6306.099121,5060.920898 6315.146973,4954.485840 
	C6318.564453,4914.286621 6309.261230,4876.493652 6287.395996,4839.004883 
z"/>
<path fill="#2B356A" opacity="1.000000" stroke="none" 
	d="
M2765.508789,2205.282715 
	C2583.200684,2250.746582 2402.437012,2295.578857 2218.481934,2341.104492 
	C2220.885254,2335.505615 2221.208984,2332.422607 2222.822021,2331.426025 
	C2227.885254,2328.297119 2233.368408,2325.811279 2238.803223,2323.325928 
	C2518.021973,2195.636719 2797.243896,2067.954346 3076.483643,1940.311279 
	C3665.862305,1670.900757 4255.250488,1401.511597 4844.635742,1132.115234 
	C4927.620605,1094.184570 5010.664062,1056.380981 5093.569824,1018.278198 
	C5126.812500,1003.000244 5161.389648,994.891052 5198.089355,995.825378 
	C5293.741211,998.260559 5386.790527,1063.409912 5411.729004,1169.039185 
	C5418.605957,1198.165161 5422.730957,1227.947021 5427.939453,1257.459595 
	C5439.283203,1321.736084 5450.488770,1386.036987 5461.798340,1450.319580 
	C5466.183594,1475.244141 5470.727051,1500.141113 5475.097656,1525.068115 
	C5475.426270,1526.941284 5474.950684,1528.955322 5474.801270,1531.810425 
	C5470.561523,1533.233276 5466.354004,1534.977539 5461.982910,1536.063843 
	C5306.249512,1574.775024 5150.502930,1613.433105 4994.753906,1652.080200 
	C4804.750000,1699.227051 4614.733398,1746.325073 4424.737793,1793.504395 
	C4234.104492,1840.841919 4043.494385,1888.271118 3852.866455,1935.628296 
	C3660.939941,1983.308228 3469.011230,2030.977783 3277.070312,2078.599365 
	C3108.397705,2120.447754 2939.707031,2162.224121 2771.022705,2204.025391 
	C2769.727295,2204.346436 2768.406494,2204.565674 2765.508789,2205.282715 
z"/>
<path fill="#3D4676" opacity="1.000000" stroke="none" 
	d="
M2212.452637,2342.022461 
	C2203.586670,2344.362793 2194.720703,2346.702881 2181.802246,2350.112793 
	C2193.476074,2344.332520 2201.340576,2340.438477 2210.769531,2337.881348 
	C2212.373535,2340.153076 2212.413086,2341.087646 2212.452637,2342.022461 
z"/>
<path fill="#3D4676" opacity="1.000000" stroke="none" 
	d="
M1506.461914,2691.740234 
	C1508.005615,2693.575684 1508.026245,2695.257080 1508.053955,2698.200195 
	C1499.936646,2699.530273 1491.812256,2699.598877 1482.259766,2698.901367 
	C1480.831787,2698.135254 1481.177124,2696.665039 1481.177124,2696.665039 
	C1489.097656,2694.971924 1497.018188,2693.279053 1506.461914,2691.740234 
z"/>
<path fill="#DDDFE7" opacity="1.000000" stroke="none" 
	d="
M1479.937988,2696.457520 
	C1481.177124,2696.665039 1480.831787,2698.135254 1480.514038,2698.820312 
	C1478.994629,2701.930420 1477.318115,2703.313232 1474.559448,2701.831299 
	C1474.096802,2701.582520 1473.567871,2700.416504 1473.652710,2700.342285 
	C1475.282593,2698.918701 1476.999878,2697.594971 1479.937988,2696.457520 
z"/>
<path fill="#2B356A" opacity="1.000000" stroke="none" 
	d="
M2214.213867,2341.706787 
	C2212.413086,2341.087646 2212.373535,2340.153076 2212.195312,2337.822021 
	C2213.714600,2335.682861 2215.309326,2334.607666 2217.046143,2334.275635 
	C2219.625244,2333.782959 2221.484375,2336.163086 2220.136719,2338.273682 
	C2219.263428,2339.641113 2217.396729,2340.373779 2214.213867,2341.706787 
z"/>
<path fill="#3D4676" opacity="1.000000" stroke="none" 
	d="
M6069.188477,2699.685303 
	C6068.565918,2698.199707 6069.470703,2697.270020 6071.683594,2696.462158 
	C6071.892090,2697.470947 6071.134277,2698.690186 6069.188477,2699.685303 
z"/>
<path fill="#FEFEFE" opacity="1.000000" stroke="none" 
	d="
M6288.080078,4840.301758 
	C6309.261230,4876.493652 6318.564453,4914.286621 6315.146973,4954.485840 
	C6306.099121,5060.920898 6222.475098,5123.711914 6144.611816,5133.191895 
	C6048.158691,5144.936035 5952.660645,5080.970703 5930.979004,4981.486816 
	C5909.047363,4880.854004 5970.225098,4779.081543 6069.630371,4752.235352 
	C6148.916504,4730.823242 6231.793945,4760.453125 6279.664062,4827.362793 
	C6282.373047,4831.149414 6284.824707,4835.119629 6288.080078,4840.301758 
z"/>
</svg>