<svg xmlns="http://www.w3.org/2000/svg" viewBox="0 0 32 32">
  <path stroke="currentColor"
    d="M1 13.36h20a.36.36 0 0 0 .36-.36V3a.36.36 0 0 0-.36-.36H1A.36.36 0 0 0 .64 3v10c0 .199.161.36.36.36zm.36-2.964a2.628 2.628 0 0 1 2.244 2.244H1.36v-2.244zm0-.719V6.323A3.34 3.34 0 0 0 4.323 3.36h13.353a3.343 3.343 0 0 0 2.964 2.964v3.353a3.344 3.344 0 0 0-2.964 2.964H4.323A3.34 3.34 0 0 0 1.36 9.677zm17.037 2.963a2.63 2.63 0 0 1 2.243-2.244v2.244h-2.243zm2.243-7.036a2.627 2.627 0 0 1-2.243-2.244h2.243v2.244zM3.604 3.36A2.63 2.63 0 0 1 1.36 5.604V3.36h2.244zm7.396 8c1.853 0 3.36-1.507 3.36-3.36S12.853 4.64 11 4.64 7.64 6.147 7.64 8s1.507 3.36 3.36 3.36zm0-6c1.456 0 2.64 1.185 2.64 2.64s-1.185 2.64-2.64 2.64S8.36 9.456 8.36 8 9.544 5.36 11 5.36zm20 13.28H11a.36.36 0 0 0-.36.36v10c0 .199.161.36.36.36h20a.36.36 0 0 0 .36-.36V19a.36.36 0 0 0-.36-.36zm-.36 2.963a2.627 2.627 0 0 1-2.243-2.243h2.243v2.243zm0 .721v3.352a3.345 3.345 0 0 0-2.964 2.964H14.323a3.344 3.344 0 0 0-2.964-2.964v-3.352a3.343 3.343 0 0 0 2.964-2.964h13.353a3.344 3.344 0 0 0 2.964 2.964zM13.604 19.36a2.627 2.627 0 0 1-2.244 2.243V19.36h2.244zm-2.244 7.037a2.63 2.63 0 0 1 2.244 2.243H11.36v-2.243zm17.037 2.243a2.627 2.627 0 0 1 2.243-2.243v2.243h-2.243zm-7.397-8c-1.853 0-3.36 1.508-3.36 3.36s1.508 3.36 3.36 3.36 3.36-1.508 3.36-3.36-1.507-3.36-3.36-3.36zm0 6c-1.456 0-2.64-1.184-2.64-2.64s1.184-2.64 2.64-2.64 2.64 1.184 2.64 2.64-1.184 2.64-2.64 2.64zm-19.13-3H8v.721H1.87l2.385 2.385-.509.51L.491 24l3.255-3.255.509.51L1.87 23.64zM30.131 8.36H24v-.72h6.131l-2.386-2.386.51-.509L31.509 8l-3.254 3.254-.51-.509 2.386-2.385z" />
  <path d="M0 0h32v32H0z" style="fill:none" />
</svg>